<?xml version="1.0" encoding="UTF-8"?>
<svg id="Layer_1" data-name="Layer 1" xmlns="http://www.w3.org/2000/svg" viewBox="0 0 1062.44 556.56">
  <defs>
    <style>
      .cls-1 {
        fill: #fff;
      }

      .cls-2 {
        fill: #ff671d;
      }

      .cls-3 {
        fill: #c028b9;
      }
    </style>
  </defs>
  <path class="cls-2" d="m1052.82,403.26c-5.32-7.33-13.18-12.14-22.12-13.56h0c-18.45-2.93-35.85,9.72-38.77,28.18-5.42,34.24-35.74,57.94-69.89,55.31-2.35-.52-4.79-.8-7.3-.8-2.73,0-5.38.33-7.93.94-.12.03-.24.05-.36.08-.1.02-.21.05-.31.08-13.24,3.21-23.78,14.29-25.63,28.57-1.17,8.98,1.23,17.87,6.76,25.04,5.52,7.17,13.51,11.76,22.49,12.93,5.67.74,11.32,1.09,16.91,1.09,64.44,0,121.9-47.57,132.21-112.66,1.42-8.94-.73-17.9-6.05-25.22Z"/>
  <path class="cls-2" d="m1056.4,269.79v-100.62c0-19.07-15.46-34.53-34.53-34.53s-34.53,15.46-34.53,34.53v100.62c0,35.72-29.06,64.78-64.78,64.78s-64.78-29.06-64.78-64.78v-100.28c0-19.07-15.46-34.53-34.53-34.53s-34.53,15.46-34.53,34.53v100.28c0,73.8,60.04,133.84,133.84,133.84s133.84-60.04,133.84-133.84Z"/>
  <path class="cls-2" d="m270.78,168.66c0-19.07-15.46-34.53-34.53-34.53s-34.53,15.46-34.53,34.53v94.12h.04v4.73c0,35.72-29.06,64.78-64.78,64.78s-64.78-29.06-64.78-64.78v-98.24c0-19.07-15.46-34.53-34.53-34.53S3.14,150.19,3.14,169.26v98.24c0,73.8,60.04,133.84,133.84,133.84s133.84-60.04,133.84-133.84v-57.33c0-.26-.03-.51-.04-.77v-40.75Z"/>
  <path class="cls-2" d="m760.41,272.9V73.16c0-12.9-7.09-24.13-17.57-30.06-5.01-2.84-10.79-4.47-16.96-4.47-6.9,0-13.3,2.04-18.69,5.53-3,1.93-5.69,4.3-7.95,7.04-4.93,5.97-7.88,13.62-7.88,21.96v199.74c0,.08,0,.15,0,.22,0,2.73.07,5.46.17,8.19.03.9.09,1.8.14,2.7.1,1.93.21,3.87.36,5.8.08,1,.16,1.99.25,2.98.17,1.93.38,3.86.6,5.79.1.88.2,1.77.31,2.65.34,2.67.72,5.33,1.16,7.98.02.1.03.21.05.31.47,2.79,1,5.57,1.57,8.34.15.74.33,1.48.49,2.23.44,2.04.91,4.07,1.41,6.1.21.85.43,1.7.65,2.55.52,2.01,1.07,4.01,1.65,6.01.21.74.42,1.48.64,2.21,5.06,16.87,12.11,33.16,21.07,48.47,6.42,10.98,17.97,17.09,29.83,17.09,5.92,0,11.93-1.53,17.41-4.73,16.46-9.63,21.99-30.78,12.36-47.24-13.77-23.53-21.05-50.37-21.05-77.63Z"/>
  <path class="cls-2" d="m628.55,134.43c-19.07,0-34.53,15.46-34.53,34.53v199.62c0,19.07,15.46,34.53,34.53,34.53s34.53-15.46,34.53-34.53v-199.62c0-19.07-15.46-34.53-34.53-34.53Z"/>
  <path class="cls-2" d="m432.43,134.63c-73.57,0-133.41,59.85-133.41,133.42,0,1.38.03,2.76.07,4.12-.04.7-.07,1.4-.07,2.1v42.05h0v151.34c0,19.07,15.46,34.53,34.53,34.53s34.53-15.46,34.53-34.53v-42.04s0,0,0-.01v-40.74c19.09,10.56,41.03,16.58,64.35,16.58,73.57,0,133.41-59.85,133.41-133.41s-59.85-133.42-133.41-133.42Zm0,197.77c-35.49,0-64.35-28.87-64.35-64.35s28.87-64.35,64.35-64.35,64.35,28.87,64.35,64.35-28.87,64.35-64.35,64.35Z"/>
  <path class="cls-1" d="m432.43,372.75c-21.24,0-41.68-6.36-59.1-18.4-3.46-2.4-4.33-7.14-1.95-10.6,2.43-3.5,7.14-4.3,10.6-1.95,14.88,10.28,32.32,15.7,50.45,15.7,31.38,0,59.86-16.07,76.15-43.01,2.22-3.64,6.87-4.72,10.46-2.59,3.62,2.2,4.76,6.87,2.59,10.46-19.11,31.54-52.44,50.38-89.2,50.38Z"/>
  <g id="path776">
    <path class="cls-3" d="m418.42,234.1c-19.07,0-34.53,15.46-34.53,34.53s15.46,34.53,34.53,34.53,34.53-15.46,34.53-34.53-15.46-34.53-34.53-34.53"/>
  </g>
  <g id="path780">
    <path class="cls-1" d="m409,241.9c-7.52,0-13.61,6.1-13.61,13.61s6.09,13.61,13.61,13.61,13.61-6.1,13.61-13.61-6.1-13.61-13.61-13.61"/>
  </g>
  <path class="cls-2" d="m615.56,115.06c-4.46,0-8.95-1.32-12.88-4.06-10.19-7.12-12.69-21.16-5.56-31.35l9.78-14.01-15.41-7.39c-11.22-5.37-15.96-18.82-10.58-30.03,5.36-11.21,18.81-15.96,30.03-10.58l39.34,18.84c5.96,2.86,10.37,8.19,12.05,14.58,1.68,6.39.47,13.2-3.32,18.62l-24.98,35.76c-4.37,6.27-11.37,9.62-18.47,9.62Z"/>
</svg>